<svg xmlns="http://www.w3.org/2000/svg" xml:space="preserve" width="112.151" height="60.015" style="shape-rendering:geometricPrecision;text-rendering:geometricPrecision;image-rendering:optimizeQuality;fill-rule:evenodd;clip-rule:evenodd" viewBox="0 0 866.45 463.66">
<g fill="currentColor" id="Слой_x0020_1"><path d="M452.31 45.62c2.73 4.04 4.15 7.53 4.15 10.59 0 4.25-9.28 12.55-27.72 24.88-26.2 31.22-61.56 83.94-106.2 158.16-47.92 79.79-80.99 143.09-99.54 189.81 1.09 4.69 1.64 8.4 1.64 10.91 0 6.98-6.66 13.64-20.08 19.86-5.35 2.51-10.04 3.82-13.97 3.82-5.35 0-12.33-4.91-21.07-14.73-3.38-4.04-5.13-8.19-5.13-12.44 0-6.22 3.05-12.01 9.17-17.36-1.31-71.27-10.81-142.22-28.6-212.95-15.83-62.54-33.07-107.08-51.74-133.82-6.44-9.39-14.95-14.08-25.76-14.08-11.57 0-28.16 8.08-49.77 24.23-2.4 1.75-5.13 2.62-8.4 2.62-6.22 0-9.28-2.29-9.28-6.77 0-2.51 1.75-5.57 5.13-8.95 18.12-18.34 40.82-35.26 68.22-50.65 9.6-5.57 17.35-8.3 23.36-8.3 9.6 0 19.32 7.1 29.14 21.39 43.77 64.29 74.11 178.46 90.92 342.73 14.95-30.13 43.11-81.97 84.59-155.76 38.2-67.89 59.92-105.55 65.16-113.08-4.04.65-8.3-3.38-12.77-12.12-4.48-8.73-6.66-17.25-6.66-25.76 0-6.88 2.07-10.26 6.11-10.26 4.8.22 9.71.33 14.63.33 5.68-1.53 13.21-6.22 22.26-14.3 6.22-5.35 12.23-10.81 18.23-16.37 6.11-4.26 10.81-6.33 13.97-6.33 8.51 0 18.55 8.18 30.01 24.67z" class="fil0"/><path d="M864.16 30.89c1.53 1.31 2.29 2.84 2.29 4.58 0 4.26-3.38 6.44-10.26 6.44-1.31 0-3.27-.22-5.9-.66-2.73-.44-4.8-.65-6.22-.65-10.04 0-20.19 9.82-30.45 29.36-41.69 80.55-68.87 180.86-81.43 300.81 4.91-9.17 11.46-21.39 19.54-36.78 2.29-4.69 5.24-7.09 8.62-7.09 4.04 0 6.11 2.73 6.11 8.08 0 2.51-.77 5.57-2.29 8.95-9.39 22.16-18.01 54.03-25.87 95.5-1.97 9.17-6.11 13.75-12.55 13.75-7.31 0-18.34-5.57-33.07-16.59-7.1-5.35-11.13-9.61-12.23-12.77-1.31-3.05-1.2-9.17.33-18.55 7.75-46.28 17.68-98.35 29.91-156.3 14.19-66.25 24.56-105.44 31-117.33-22.48 26.41-49.99 65.27-82.73 116.46-31.98 50.32-60.03 98.13-83.94 143.64 4.26 13.21 6.44 23.14 6.44 29.69 0 8.3-7.09 18.99-21.06 31.98-7.2 6.88-12.01 10.26-14.3 10.26-2.4 0-8.62-8.51-18.77-25.54-4.48-7.31-6.77-13.1-6.77-17.35 0-2.95 3.06-10.26 9.28-21.72-13.65-50.76-38.42-112.64-74.33-185.55-22.92 57.96-46.28 110.9-69.85 158.59 15.39 17.25 23.03 28.93 23.03 34.93 0 4.69-5.35 7.64-15.94 8.95-22.37 2.51-41.15 14.08-56.32 34.49-1.31 6.66-4.47 9.93-9.6 9.93-7.2 0-18.45-6.55-33.62-19.54-4.69-4.04-6.98-7.31-6.98-9.93 0-2.29 1.96-5.24 5.78-8.62 14.3-12.33 30.56-24.34 48.9-35.8 39.73-65.92 72.04-135.24 97.03-208.04-25.98-57.19-58.29-97.03-96.93-119.63-6.33-3.82-12.44-5.78-18.23-5.78-8.08 0-16.59 4.15-25.54 12.44-8.3 8.95-16.59 18.01-24.89 27.18-4.69 5.35-9.5 8.08-14.41 8.08-3.82 0-5.78-1.96-5.78-5.78 0-1.97.65-4.15 1.97-6.77 28.71-57.63 56.32-86.01 82.52-84.92 31.11 1.09 71.6 39.73 121.26 115.92 12.12-27.73 18.23-52.83 18.23-75.2 0-11.46 1.75-17.25 5.13-17.25 3.17 0 10.58 4.58 22.16 13.75 3.38 2.73 5.02 8.51 4.8 17.25-.44 11.13-10.26 43.44-29.58 96.92 37.22 72.91 65.38 139.38 84.59 199.53 75.31-124.98 143.09-222.56 203.34-292.74 7.42-17.14 16.59-33.95 27.51-50.54C798.78 3.62 804.46.02 811.12.02c9.93 0 27.72 10.26 53.05 30.89z" class="fil0"/>
</g></svg>